{"title":"Shag.1989.DVDRip.XviD-8BaLLRiPS[rbg]","uid":9489410,"size":733849065,"categoryP":"video","categoryS":"movies","magnet":"?xt=urn:btih:7ff0ec121f3cb8436b9260178639ec1450e3e88c&amp;dn=Shag.1989.DVDRip.XviD-8BaLLRiPS%5Brbg%5D&amp;tr=udp%3A%2F%2Ftracker.openbittorrent.com%3A80&amp;tr=udp%3A%2F%2Fopen.demonii.com%3A1337&amp;tr=udp%3A%2F%2Ftracker.coppersurfer.tk%3A6969&amp;tr=udp%3A%2F%2Fexodus.desync.com%3A6969","seeders":6,"leechers":0,"uploader":"fabiengoulart","files":3,"time":1389968685,"description":"General\nComplete name                    : shag.1989.dvdrip.xvid-8ballrips.avi\nFormat                           : AVI\nFormat/Info                      : Audio Video Interleave\nFile size                        : 700 MiB\nDuration                         : 1h 38mn\nOverall bit rate                 : 989 Kbps\n\nVideo\nID                               : 0\nFormat                           : MPEG-4 Visual\nFormat profile                   : Advanced Simple@L5\nFormat settings, BVOP            : 2\nFormat settings, QPel            : No\nFormat settings, GMC             : No warppoints\nFormat settings, Matrix          : Default (H.263)\nCodec ID                         : XVID\nCodec ID/Hint                    : XviD\nDuration                         : 1h 38mn\nBit rate                         : 862 Kbps\nWidth                            : 640 pixels\nHeight                           : 352 pixels\nDisplay aspect ratio             : 16:9\nFrame rate                       : 23.976 fps\nColor space                      : YUV\nChroma subsampling               : 4:2:0\nBit depth                        : 8 bits\nScan type                        : Progressive\nCompression mode                 : Lossy\nBits/(Pixel*Frame)               : 0.160\nStream size                      : 610 MiB (87%)\nWriting library                  : XviD 1.2.1 (UTC 2008-12-04)\n\nAudio\nID                               : 1\nFormat                           : MPEG Audio\nFormat version                   : Version 1\nFormat profile                   : Layer 3\nMode                             : Joint stereo\nMode extension                   : MS Stereo\nCodec ID                         : 55\nCodec ID/Hint                    : MP3\nDuration                         : 1h 38mn\nBit rate mode                    : Variable\nBit rate                         : 114 Kbps\nNominal bit rate                 : 128 Kbps\nChannel(s)                       : 2 channels\nSampling rate                    : 48.0 KHz\nCompression mode                 : Lossy\nStream size                      : 81.0 MiB (12%)\nAlignment                        : Aligned on interleaves\nInterleave, duration             : 24 ms (0.58 video frame)\nInterleave, preload duration     : 73 ms\nTitle                            : Shag.1989.DVDRip.XviD-8BaLLRiPS T80 2_0ch 192Kbps DELAY 0ms\nWriting library                  : LAME3.99r\nEncoding settings                : -m j -V 4 -q 2 -lowpass 17 --abr 128\n\n","torrent":{"xt":"urn:btih:7ff0ec121f3cb8436b9260178639ec1450e3e88c","amp;dn":"Shag.1989.DVDRip.XviD-8BaLLRiPS%5Brbg%5D","amp;tr":["udp%3A%2F%2Ftracker.openbittorrent.com%3A80","udp%3A%2F%2Fopen.demonii.com%3A1337","udp%3A%2F%2Ftracker.coppersurfer.tk%3A6969","udp%3A%2F%2Fexodus.desync.com%3A6969"],"infoHash":"7ff0ec121f3cb8436b9260178639ec1450e3e88c","infoHashBuffer":{"type":"Buffer","data":[127,240,236,18,31,60,184,67,107,146,96,23,134,57,236,20,80,227,232,140]},"announce":[],"urlList":[]}}